<svg width="200" height="13" viewBox="0 0 200 13" fill="none" xmlns="http://www.w3.org/2000/svg">
<path d="M81.0521 12.3682H82.1479V0.105057H81.0521V12.3682Z" fill="white" fill-opacity="0.25"/>
<path d="M47.1594 7.07085C47.1594 9.04832 46.2606 9.04832 45.7812 9.04832C45.3618 9.04832 44.403 9.04832 44.403 7.07085V1.55794H42.1259V7.43037C42.1259 9.70748 43.6239 11.2654 45.7812 11.2654C47.9384 11.2654 49.4365 9.70695 49.4365 7.43037V1.55794H47.1594V7.07085Z" fill="white"/>
<path d="M69.6304 1.3183C68.2795 1.3183 66.984 1.85493 66.0288 2.81014C65.0736 3.76535 64.5369 5.06088 64.5369 6.41175C64.5369 7.76262 65.0736 9.05816 66.0288 10.0134C66.984 10.9686 68.2795 11.5052 69.6304 11.5052C72.5067 11.5052 74.7238 9.28808 74.7238 6.41181C74.7244 5.74276 74.593 5.08018 74.3372 4.46195C74.0815 3.84372 73.7063 3.282 73.2332 2.80891C72.7602 2.33582 72.1984 1.96065 71.5802 1.70488C70.962 1.4491 70.2994 1.31774 69.6304 1.3183ZM69.6304 9.16821C68.9019 9.15997 68.2056 8.86692 67.6904 8.35177C67.1753 7.83662 66.8822 7.14029 66.874 6.41181C66.874 5.68075 67.1644 4.97963 67.6813 4.4627C68.1983 3.94576 68.8994 3.65535 69.6304 3.65535C70.3615 3.65535 71.0626 3.94576 71.5795 4.4627C72.0965 4.97963 72.3869 5.68075 72.3869 6.41181C72.3878 6.77406 72.3172 7.13293 72.179 7.46779C72.0408 7.80265 71.8378 8.1069 71.5817 8.36305C71.3255 8.6192 71.0212 8.8222 70.6864 8.96037C70.3515 9.09855 69.9926 9.16918 69.6304 9.16821Z" fill="white"/>
<path d="M5.0934 0L0 11.2056H2.57664L3.53544 9.04835H6.65147L7.61026 11.2056H10.1869L5.0934 0ZM4.13471 7.13065L5.0935 4.79365L6.05251 7.13065H4.13471Z" fill="white"/>
<path d="M16.1788 1.61798H12.464V11.0259H14.801V8.32933H16.0593C18.3963 8.32933 19.8345 7.01102 19.8345 4.97366C19.8345 2.87641 18.4563 1.61798 16.1788 1.61798ZM17.4372 5.03386C17.4372 5.81311 16.8979 6.29229 15.999 6.29229H14.801V3.71533H15.9994C16.9582 3.71533 17.4376 4.19473 17.4376 5.03365L17.4372 5.03386Z" fill="white"/>
<path d="M25.8863 1.61798H22.1715V11.0259H24.5085V8.32933H25.7669C28.1039 8.32933 29.5421 7.01102 29.5421 4.97366C29.4821 2.87641 28.1038 1.61798 25.8863 1.61798ZM27.1447 5.03386C27.1447 5.81311 26.6054 6.29229 25.7065 6.29229H24.5085V3.71533H25.7069C26.6057 3.71533 27.1451 4.19473 27.1451 5.03365L27.1447 5.03386Z" fill="white"/>
<path d="M36.4331 4.6139C34.5757 4.1345 34.216 3.89486 34.216 3.29558V3.2357C34.216 2.69642 34.6954 2.39678 35.5343 2.39678C36.3732 2.39678 37.272 2.7563 38.2907 3.41546L38.3506 3.47535L39.6689 1.55786L39.609 1.49798C38.4668 0.594744 37.0504 0.108563 35.5942 0.119883C33.3172 0.119883 31.7591 1.49808 31.7591 3.41567V3.47556C31.7591 5.75267 33.3176 6.29195 35.3546 6.83123C37.1523 7.31063 37.4518 7.61048 37.4518 8.08967V8.14955C37.4518 8.74882 36.9125 9.04835 36.0136 9.04835C34.9355 9.04835 33.9163 8.62884 32.8976 7.78992L32.8377 7.73004L31.3397 9.52775L31.3996 9.58764C32.6659 10.7241 34.3124 11.3442 36.0137 11.3254C38.4706 11.3254 40.0285 10.007 40.0285 7.90948C39.9087 5.93243 38.5305 5.1534 36.4331 4.6139Z" fill="white"/>
<path d="M57.2264 11.5651L54.41 6.77132L53.5711 11.2056H51.5338L53.6311 1.3183L57.3459 7.55025L60.8817 1.3183L62.979 11.2056H60.8219L59.9829 6.83121L57.2264 11.5651Z" fill="white"/>
<path d="M88.4149 11.0832H90.4691V5.10215L93.4457 10.5243L96.4083 5.10215V11.0832H98.4765V1.48276H96.4083L93.4457 6.90486L90.4691 1.48276H88.4149V11.0832Z" fill="#FFBC00"/>
<path d="M108.191 11.0832H110.511L106.598 1.48276H104.293L100.38 11.0832H102.685L103.3 9.57399H107.577L108.191 11.0832ZM104.013 7.82718L105.438 4.31958L106.864 7.82718H104.013Z" fill="#FFBC00"/>
<path d="M120.461 11.0832L118.099 7.72935C119.413 7.2682 120.279 6.15024 120.279 4.72484C120.279 2.82431 118.742 1.48276 116.66 1.48276H112.342V11.0832H114.396V7.96692H115.919L118.113 11.0832H120.461ZM114.396 3.36931H116.436C117.456 3.36931 118.155 3.90034 118.155 4.72484C118.155 5.54933 117.456 6.08037 116.436 6.08037H114.396V3.36931Z" fill="#FFBC00"/>
<path d="M122.581 11.0832H124.635V8.40013L125.837 7.11448L128.786 11.0832H131.287L127.277 5.64716L131.022 1.48276H128.52L124.635 5.88472V1.48276H122.581V11.0832Z" fill="#FFBC00"/>
<path d="M140.374 3.34136V1.48276H132.981V11.0832H140.374V9.22462H135.049V7.11448H139.871V5.25587H135.049V3.34136H140.374Z" fill="#FFBC00"/>
<path d="M145.12 11.0832H147.188V3.34136H150.179V1.48276H142.129V3.34136H145.12V11.0832Z" fill="#FFBC00"/>
<path d="M152.256 11.0832H154.31V7.96692H156.574C158.656 7.96692 160.194 6.62537 160.194 4.72484C160.194 2.82431 158.656 1.48276 156.574 1.48276H152.256V11.0832ZM154.31 6.08037V3.36931H156.351C157.371 3.36931 158.07 3.90034 158.07 4.72484C158.07 5.54933 157.371 6.08037 156.351 6.08037H154.31Z" fill="#FFBC00"/>
<path d="M164.179 9.22462V1.48276H162.11V11.0832H168.958V9.22462H164.179Z" fill="#FFBC00"/>
<path d="M178.028 11.0832H180.348L176.435 1.48276H174.13L170.217 11.0832H172.522L173.137 9.57399H177.413L178.028 11.0832ZM173.85 7.82718L175.275 4.31958L176.701 7.82718H173.85Z" fill="#FFBC00"/>
<path d="M186.902 11.2509C188.355 11.2509 189.697 10.6221 190.633 9.64386L189.138 8.30231C188.579 8.94514 187.782 9.37834 186.902 9.37834C185.295 9.37834 183.925 7.95295 183.925 6.27601C183.925 4.61304 185.295 3.18765 186.902 3.18765C187.782 3.18765 188.579 3.62085 189.138 4.26368L190.633 2.92213C189.697 1.92994 188.355 1.31506 186.902 1.31506C184.149 1.31506 181.801 3.57893 181.801 6.27601C181.801 8.97308 184.149 11.2509 186.902 11.2509Z" fill="#FFBC00"/>
<path d="M200 3.34136V1.48276H192.607V11.0832H200V9.22462H194.676V7.11448H199.497V5.25587H194.676V3.34136H200Z" fill="#FFBC00"/>
</svg>
